<svg xmlns="http://www.w3.org/2000/svg" viewBox="0 0 512 512" width="512" height="512">
  <defs>
    <linearGradient id="bgGrad" x1="0%" y1="0%" x2="100%" y2="100%">
      <stop offset="0%" style="stop-color:#10b981;stop-opacity:1" />
      <stop offset="100%" style="stop-color:#059669;stop-opacity:1" />
    </linearGradient>
    <linearGradient id="goldGrad" x1="0%" y1="0%" x2="0%" y2="100%">
      <stop offset="0%" style="stop-color:#fbbf24;stop-opacity:1" />
      <stop offset="50%" style="stop-color:#f59e0b;stop-opacity:1" />
      <stop offset="100%" style="stop-color:#d97706;stop-opacity:1" />
    </linearGradient>
    <linearGradient id="silverGrad" x1="0%" y1="0%" x2="0%" y2="100%">
      <stop offset="0%" style="stop-color:#f3f4f6;stop-opacity:1" />
      <stop offset="50%" style="stop-color:#d1d5db;stop-opacity:1" />
      <stop offset="100%" style="stop-color:#9ca3af;stop-opacity:1" />
    </linearGradient>
    <linearGradient id="skinGrad" x1="0%" y1="0%" x2="0%" y2="100%">
      <stop offset="0%" style="stop-color:#fcd4b8;stop-opacity:1" />
      <stop offset="100%" style="stop-color:#f4a261;stop-opacity:1" />
    </linearGradient>
    <radialGradient id="coinShine">
      <stop offset="0%" style="stop-color:#ffffff;stop-opacity:0.8" />
      <stop offset="100%" style="stop-color:#ffffff;stop-opacity:0" />
    </radialGradient>
  </defs>

  <!-- Background circle -->
  <circle cx="256" cy="256" r="256" fill="url(#bgGrad)"/>

  <!-- Hand (palm and fingers) -->
  <g transform="translate(256, 380)">
    <!-- Palm -->
    <ellipse cx="0" cy="0" rx="90" ry="70" fill="url(#skinGrad)"/>
    <ellipse cx="0" cy="0" rx="90" ry="70" fill="#000" opacity="0.1"/>

    <!-- Thumb -->
    <ellipse cx="-75" cy="-20" rx="35" ry="55" fill="url(#skinGrad)" transform="rotate(-25 -75 -20)"/>

    <!-- Index finger -->
    <rect x="-45" y="-90" width="40" height="90" rx="20" fill="url(#skinGrad)"/>
    <circle cx="-25" cy="-90" r="20" fill="url(#skinGrad)"/>

    <!-- Middle finger -->
    <rect x="-5" y="-110" width="40" height="110" rx="20" fill="url(#skinGrad)"/>
    <circle cx="15" cy="-110" r="20" fill="url(#skinGrad)"/>

    <!-- Ring finger -->
    <rect x="35" y="-95" width="38" height="95" rx="19" fill="url(#skinGrad)"/>
    <circle cx="54" cy="-95" r="19" fill="url(#skinGrad)"/>

    <!-- Pinky -->
    <rect x="70" y="-70" width="32" height="70" rx="16" fill="url(#skinGrad)"/>
    <circle cx="86" cy="-70" r="16" fill="url(#skinGrad)"/>

    <!-- Wrist -->
    <rect x="-60" y="40" width="120" height="80" rx="10" fill="url(#skinGrad)"/>
  </g>

  <!-- Coins floating above/around hand -->
  <g>
    <!-- Large gold coin (center) -->
    <g transform="translate(256, 180)">
      <ellipse cx="0" cy="0" rx="75" ry="75" fill="url(#goldGrad)"/>
      <ellipse cx="0" cy="0" rx="75" ry="75" fill="url(#coinShine)" opacity="0.4"/>
      <circle cx="0" cy="0" r="60" fill="none" stroke="#d97706" stroke-width="4"/>
      <circle cx="0" cy="0" r="45" fill="none" stroke="#b45309" stroke-width="3"/>
      <text x="0" y="20" text-anchor="middle" font-family="Arial, sans-serif" font-size="48" font-weight="bold" fill="#78350f">$</text>
    </g>

    <!-- Silver coin (left) -->
    <g transform="translate(140, 140)">
      <ellipse cx="0" cy="0" rx="55" ry="55" fill="url(#silverGrad)"/>
      <ellipse cx="0" cy="0" rx="55" ry="55" fill="url(#coinShine)" opacity="0.3"/>
      <circle cx="0" cy="0" r="45" fill="none" stroke="#9ca3af" stroke-width="3"/>
      <text x="0" y="15" text-anchor="middle" font-family="Arial, sans-serif" font-size="36" font-weight="bold" fill="#6b7280">€</text>
    </g>

    <!-- Gold coin (right) -->
    <g transform="translate(372, 150)">
      <ellipse cx="0" cy="0" rx="58" ry="58" fill="url(#goldGrad)"/>
      <ellipse cx="0" cy="0" rx="58" ry="58" fill="url(#coinShine)" opacity="0.4"/>
      <circle cx="0" cy="0" r="47" fill="none" stroke="#d97706" stroke-width="3"/>
      <text x="0" y="16" text-anchor="middle" font-family="Arial, sans-serif" font-size="38" font-weight="bold" fill="#78350f">¥</text>
    </g>

    <!-- Small silver coin (top left) -->
    <g transform="translate(160, 80)">
      <ellipse cx="0" cy="0" rx="40" ry="40" fill="url(#silverGrad)"/>
      <ellipse cx="0" cy="0" rx="40" ry="40" fill="url(#coinShine)" opacity="0.3"/>
      <circle cx="0" cy="0" r="32" fill="none" stroke="#9ca3af" stroke-width="2"/>
      <text x="0" y="11" text-anchor="middle" font-family="Arial, sans-serif" font-size="26" font-weight="bold" fill="#6b7280">₽</text>
    </g>

    <!-- Small gold coin (top right) -->
    <g transform="translate(350, 90)">
      <ellipse cx="0" cy="0" rx="42" ry="42" fill="url(#goldGrad)"/>
      <ellipse cx="0" cy="0" rx="42" ry="42" fill="url(#coinShine)" opacity="0.4"/>
      <circle cx="0" cy="0" r="34" fill="none" stroke="#d97706" stroke-width="2"/>
      <text x="0" y="12" text-anchor="middle" font-family="Arial, sans-serif" font-size="28" font-weight="bold" fill="#78350f">£</text>
    </g>

    <!-- Tiny coin near hand -->
    <g transform="translate(200, 260)">
      <ellipse cx="0" cy="0" rx="32" ry="32" fill="url(#goldGrad)"/>
      <ellipse cx="0" cy="0" rx="32" ry="32" fill="url(#coinShine)" opacity="0.4"/>
      <circle cx="0" cy="0" r="25" fill="none" stroke="#d97706" stroke-width="2"/>
    </g>
  </g>

  <!-- Sparkles -->
  <g opacity="0.7">
    <circle cx="120" cy="200" r="5" fill="#fbbf24"/>
    <circle cx="390" cy="220" r="4" fill="#f3f4f6"/>
    <circle cx="256" cy="100" r="6" fill="#fbbf24"/>
    <circle cx="100" cy="130" r="4" fill="#f3f4f6"/>
    <circle cx="410" cy="180" r="5" fill="#fbbf24"/>
  </g>
</svg>