<svg xmlns="http://www.w3.org/2000/svg" viewBox="0 0 512 512" width="512" height="512">
  <defs>
    <linearGradient id="bgGrad" x1="0%" y1="0%" x2="100%" y2="100%">
      <stop offset="0%" style="stop-color:#667eea;stop-opacity:1" />
      <stop offset="50%" style="stop-color:#764ba2;stop-opacity:1" />
      <stop offset="100%" style="stop-color:#f093fb;stop-opacity:1" />
    </linearGradient>
    <linearGradient id="goldGrad" x1="0%" y1="0%" x2="0%" y2="100%">
      <stop offset="0%" style="stop-color:#fbbf24;stop-opacity:1" />
      <stop offset="50%" style="stop-color:#f59e0b;stop-opacity:1" />
      <stop offset="100%" style="stop-color:#d97706;stop-opacity:1" />
    </linearGradient>
    <linearGradient id="goldGrad2" x1="0%" y1="0%" x2="0%" y2="100%">
      <stop offset="0%" style="stop-color:#fcd34d;stop-opacity:1" />
      <stop offset="50%" style="stop-color:#fbbf24;stop-opacity:1" />
      <stop offset="100%" style="stop-color:#f59e0b;stop-opacity:1" />
    </linearGradient>
    <linearGradient id="silverGrad" x1="0%" y1="0%" x2="0%" y2="100%">
      <stop offset="0%" style="stop-color:#f3f4f6;stop-opacity:1" />
      <stop offset="50%" style="stop-color:#d1d5db;stop-opacity:1" />
      <stop offset="100%" style="stop-color:#9ca3af;stop-opacity:1" />
    </linearGradient>
    <radialGradient id="coinShine">
      <stop offset="0%" style="stop-color:#ffffff;stop-opacity:0.6" />
      <stop offset="100%" style="stop-color:#ffffff;stop-opacity:0" />
    </radialGradient>
  </defs>

  <!-- Background -->
  <rect width="512" height="512" rx="80" ry="80" fill="url(#bgGrad)"/>

  <!-- Stack of coins - central focus -->

  <!-- Bottom coin (slightly tilted) -->
  <g transform="translate(256, 350)">
    <ellipse cx="0" cy="0" rx="110" ry="35" fill="#b45309"/>
    <ellipse cx="0" cy="-8" rx="110" ry="35" fill="url(#goldGrad)"/>
    <ellipse cx="0" cy="-8" rx="110" ry="35" fill="url(#coinShine)" opacity="0.3"/>
    <ellipse cx="0" cy="-8" rx="90" ry="28" fill="none" stroke="#d97706" stroke-width="3"/>
  </g>

  <!-- Second coin - SILVER -->
  <g transform="translate(256, 300)">
    <ellipse cx="0" cy="0" rx="105" ry="33" fill="#6b7280"/>
    <ellipse cx="0" cy="-8" rx="105" ry="33" fill="url(#silverGrad)"/>
    <ellipse cx="0" cy="-8" rx="105" ry="33" fill="url(#coinShine)" opacity="0.4"/>
    <ellipse cx="0" cy="-8" rx="85" ry="26" fill="none" stroke="#9ca3af" stroke-width="3"/>
  </g>

  <!-- Third coin - GOLD -->
  <g transform="translate(256, 250)">
    <ellipse cx="0" cy="0" rx="100" ry="31" fill="#b45309"/>
    <ellipse cx="0" cy="-8" rx="100" ry="31" fill="url(#goldGrad2)"/>
    <ellipse cx="0" cy="-8" rx="100" ry="31" fill="url(#coinShine)" opacity="0.3"/>
    <ellipse cx="0" cy="-8" rx="80" ry="24" fill="none" stroke="#d97706" stroke-width="3"/>
  </g>

  <!-- Top coin - SILVER -->
  <g transform="translate(256, 200)">
    <ellipse cx="0" cy="0" rx="95" ry="29" fill="#6b7280"/>
    <ellipse cx="0" cy="-8" rx="95" ry="29" fill="url(#silverGrad)"/>
    <ellipse cx="0" cy="-8" rx="95" ry="29" fill="url(#coinShine)" opacity="0.5"/>
    <ellipse cx="0" cy="-8" rx="75" ry="22" fill="none" stroke="#9ca3af" stroke-width="2"/>
  </g>

  <!-- Large upright coin (front and center) -->
  <g transform="translate(256, 220)">
    <circle cx="0" cy="0" r="95" fill="#b45309" opacity="0.3"/>
    <circle cx="-5" cy="-5" r="95" fill="url(#goldGrad)"/>
    <circle cx="-5" cy="-5" r="95" fill="url(#coinShine)" opacity="0.4"/>
    <circle cx="-5" cy="-5" r="80" fill="none" stroke="#d97706" stroke-width="4"/>
    <circle cx="-5" cy="-5" r="65" fill="none" stroke="#f59e0b" stroke-width="3" opacity="0.5"/>
    <text x="-5" y="15" text-anchor="middle" font-family="Arial, sans-serif" font-size="70" font-weight="bold" fill="#78350f">$</text>
  </g>

  <!-- Small floating coins -->
  <g transform="translate(140, 160)" opacity="0.9">
    <circle cx="0" cy="0" r="35" fill="#6b7280" opacity="0.3"/>
    <circle cx="-3" cy="-3" r="35" fill="url(#silverGrad)"/>
    <circle cx="-3" cy="-3" r="35" fill="url(#coinShine)" opacity="0.4"/>
    <circle cx="-3" cy="-3" r="28" fill="none" stroke="#9ca3af" stroke-width="2"/>
    <text x="-3" y="7" text-anchor="middle" font-family="Arial, sans-serif" font-size="28" font-weight="bold" fill="#4b5563">€</text>
  </g>

  <g transform="translate(380, 180)" opacity="0.9">
    <circle cx="0" cy="0" r="32" fill="#b45309" opacity="0.3"/>
    <circle cx="-2" cy="-2" r="32" fill="url(#goldGrad)"/>
    <circle cx="-2" cy="-2" r="32" fill="url(#coinShine)" opacity="0.3"/>
    <circle cx="-2" cy="-2" r="26" fill="none" stroke="#d97706" stroke-width="2"/>
    <text x="-2" y="6" text-anchor="middle" font-family="Arial, sans-serif" font-size="24" font-weight="bold" fill="#78350f">¥</text>
  </g>

  <!-- Sparkles around coins -->
  <g opacity="0.8">
    <circle cx="120" cy="240" r="6" fill="#fef3c7"/>
    <circle cx="390" cy="250" r="5" fill="#fef3c7"/>
    <circle cx="256" cy="120" r="7" fill="#fef3c7"/>
    <circle cx="100" cy="180" r="5" fill="#fef3c7"/>
    <circle cx="410" cy="210" r="6" fill="#fef3c7"/>
    <circle cx="180" cy="100" r="4" fill="#fef3c7"/>
    <circle cx="340" cy="110" r="5" fill="#fef3c7"/>
  </g>
</svg>