<svg xmlns="http://www.w3.org/2000/svg" viewBox="0 0 512 512">
  <!-- Monochrome smiling sun-coin for Safari pinned tab -->
  <g fill="currentColor">
    <path d="M256 40 a20 20 0 0 1 20 20 v36 a20 20 0 0 1 -40 0 V60 a20 20 0 0 1 20 -20z"/>
    <path d="M97 97 a20 20 0 0 1 28 0 l26 26 a20 20 0 0 1 -28 28 l-26 -26 a20 20 0 0 1 0 -28z"/>
    <path d="M415 97 a20 20 0 0 1 0 28 l-26 26 a20 20 0 0 1 -28 -28 l26 -26 a20 20 0 0 1 28 0z"/>
    <path d="M40 256 a20 20 0 0 1 20 -20 h36 a20 20 0 0 1 0 40 H60 a20 20 0 0 1 -20 -20z"/>
    <path d="M416 256 a20 20 0 0 1 20 -20 h36 a20 20 0 0 1 0 40 h-36 a20 20 0 0 1 -20 -20z"/>
    <path d="M256 140 a160 160 0 1 1 0 320 a160 160 0 0 1 0 -320z
             M208 261 a15 15 0 1 0 0 30 a15 15 0 0 0 0 -30z
             M304 261 a15 15 0 1 0 0 30 a15 15 0 0 0 0 -30z
             M196 322 a12 12 0 0 0 -8 21 q68 62 136 0 a12 12 0 0 0 -16 -18 q-52 46 -104 0 a12 12 0 0 0 -8 -3z"/>
  </g>
</svg>
